<svg width="24" height="24" viewBox="0 0 24 24" fill="none" xmlns="http://www.w3.org/2000/svg">
<path fill-rule="evenodd" clip-rule="evenodd" d="M1.25 7C1.25 3.82436 3.82436 1.25 7 1.25H17C20.1756 1.25 22.75 3.82436 22.75 7V17C22.75 20.1756 20.1756 22.75 17 22.75H7C3.82436 22.75 1.25 20.1756 1.25 17V7ZM7.25 13.5C7.94036 13.5 8.5 12.9404 8.5 12.25C8.5 11.5596 7.94036 11 7.25 11C6.55964 11 6 11.5596 6 12.25C6 12.9404 6.55964 13.5 7.25 13.5ZM13.5 12.25C13.5 12.9404 12.9404 13.5 12.25 13.5C11.5596 13.5 11 12.9404 11 12.25C11 11.5596 11.5596 11 12.25 11C12.9404 11 13.5 11.5596 13.5 12.25ZM17.25 13.5C17.9404 13.5 18.5 12.9404 18.5 12.25C18.5 11.5596 17.9404 11 17.25 11C16.5596 11 16 11.5596 16 12.25C16 12.9404 16.5596 13.5 17.25 13.5ZM8.5 7.25C8.5 7.94036 7.94036 8.5 7.25 8.5C6.55964 8.5 6 7.94036 6 7.25C6 6.55964 6.55964 6 7.25 6C7.94036 6 8.5 6.55964 8.5 7.25ZM12.25 8.5C12.9404 8.5 13.5 7.94036 13.5 7.25C13.5 6.55964 12.9404 6 12.25 6C11.5596 6 11 6.55964 11 7.25C11 7.94036 11.5596 8.5 12.25 8.5ZM18.5 7.25C18.5 7.94036 17.9404 8.5 17.25 8.5C16.5596 8.5 16 7.94036 16 7.25C16 6.55964 16.5596 6 17.25 6C17.9404 6 18.5 6.55964 18.5 7.25ZM7.25 18.5C7.94036 18.5 8.5 17.9404 8.5 17.25C8.5 16.5596 7.94036 16 7.25 16C6.55964 16 6 16.5596 6 17.25C6 17.9404 6.55964 18.5 7.25 18.5ZM13.5 17.25C13.5 17.9404 12.9404 18.5 12.25 18.5C11.5596 18.5 11 17.9404 11 17.25C11 16.5596 11.5596 16 12.25 16C12.9404 16 13.5 16.5596 13.5 17.25ZM17.25 18.5C17.9404 18.5 18.5 17.9404 18.5 17.25C18.5 16.5596 17.9404 16 17.25 16C16.5596 16 16 16.5596 16 17.25C16 17.9404 16.5596 18.5 17.25 18.5Z" fill="white"/>
</svg>
