<svg width="32" height="32" viewBox="0 0 32 32" fill="none" xmlns="http://www.w3.org/2000/svg">
<circle cx="16" cy="16" r="16" fill="#FCEAEA"/>
<path fill-rule="evenodd" clip-rule="evenodd" d="M7.25 14.4167C7.25 9.62281 11.1749 5.75 16 5.75C20.8251 5.75 24.75 9.62281 24.75 14.4167C24.75 17.3982 23.0113 20.3409 21.1686 22.4829C20.236 23.5669 19.2463 24.482 18.3733 25.1328C17.9374 25.4577 17.5186 25.7258 17.1405 25.9162C16.786 26.0947 16.3812 26.25 16 26.25C15.6188 26.25 15.214 26.0947 14.8595 25.9162C14.4814 25.7258 14.0626 25.4577 13.6267 25.1328C12.7537 24.482 11.764 23.5669 10.8314 22.4829C8.98872 20.3409 7.25 17.3982 7.25 14.4167ZM16 17C14.3431 17 13 15.6569 13 14C13 12.3431 14.3431 11 16 11C17.6569 11 19 12.3431 19 14C19 15.6569 17.6569 17 16 17Z" fill="#E52D2B"/>
</svg>
