<svg width="32" height="32" viewBox="0 0 32 32" fill="none" xmlns="http://www.w3.org/2000/svg">
<circle cx="16" cy="16" r="16" fill="#FCEAEA"/>
<path fill-rule="evenodd" clip-rule="evenodd" d="M14.5831 6.09954C14.8846 6.05677 15.1904 6.02745 15.5 6.01221V11.491C14.1209 11.4417 12.7886 11.1891 11.5278 10.7593C12.2319 9.03193 13.2744 7.4557 14.5831 6.09954ZM11.1835 11.6986C12.5508 12.167 13.9988 12.4416 15.5 12.4916V15.4999H10.5088C10.5559 14.183 10.7884 12.9087 11.1835 11.6986ZM9.50819 15.4999C9.55629 14.0569 9.81186 12.663 10.2477 11.3426C9.43444 11.002 8.65384 10.5913 7.91224 10.1176C6.80129 11.6424 6.11109 13.4934 6.01228 15.4999H9.50819ZM6.01228 16.4999H9.50819C9.55629 17.9429 9.81186 19.3369 10.2477 20.6572C9.43443 20.9979 8.65384 21.4086 7.91223 21.8823C6.80129 20.3574 6.11109 18.5064 6.01228 16.4999ZM10.5088 16.4999H15.5V19.5082C13.9988 19.5583 12.5508 19.8328 11.1835 20.3013C10.7884 19.0912 10.5559 17.8168 10.5088 16.4999ZM16.5 16.4999V19.5082C18.0011 19.5583 19.449 19.8328 20.8163 20.3013C21.2113 19.0912 21.4438 17.8168 21.4909 16.4999H16.5ZM22.4915 16.4999C22.4434 17.943 22.1879 19.3369 21.7521 20.6572C22.5654 20.9979 23.346 21.4086 24.0877 21.8824C25.1987 20.3575 25.8889 18.5065 25.9877 16.4999H22.4915ZM25.9877 15.4999H22.4915C22.4434 14.0569 22.1879 12.663 21.7521 11.3426C22.5654 11.0019 23.346 10.5912 24.0877 10.1175C25.1987 11.6423 25.8889 13.4934 25.9877 15.4999ZM21.4909 15.4999H16.5V12.4916C18.0011 12.4415 19.449 12.167 20.8163 11.6986C21.2113 12.9087 21.4438 14.183 21.4909 15.4999ZM11.5278 21.2405C12.7886 20.8108 14.1209 20.5582 15.5 20.5088V25.9876C15.1904 25.9724 14.8846 25.9431 14.5831 25.9003C13.2745 24.5441 12.2319 22.9679 11.5278 21.2405ZM16.5 20.5088V25.9876C16.8094 25.9724 17.1152 25.9431 17.4166 25.9004C18.7253 24.5442 19.7679 22.9679 20.472 21.2405C19.2112 20.8108 17.879 20.5582 16.5 20.5088ZM16.5 6.01221V11.491C17.879 11.4416 19.2112 11.189 20.472 10.7593C19.7679 9.03191 18.7253 7.45567 17.4166 6.0995C17.1152 6.05675 16.8095 6.02745 16.5 6.01221ZM21.4066 10.403C22.1173 10.1027 22.8017 9.74491 23.4549 9.33466C22.2908 8.03344 20.7909 7.03885 19.0915 6.48696C20.0495 7.6742 20.8333 8.99045 21.4066 10.403ZM19.0915 25.5129C20.7909 24.961 22.2908 23.9664 23.455 22.6652C22.8017 22.2549 22.1173 21.8971 21.4066 21.5968C20.8333 23.0094 20.0495 24.3256 19.0915 25.5129ZM10.5931 10.403C11.1665 8.99049 11.9502 7.67428 12.9081 6.48708C11.2088 7.039 9.70908 8.03359 8.54496 9.33476C9.19817 9.74497 9.8825 10.1028 10.5931 10.403ZM12.9081 25.5128C11.2088 24.9608 9.70907 23.9663 8.54495 22.6651C9.19816 22.2549 9.8825 21.8971 10.5931 21.5968C11.1665 23.0093 11.9502 24.3256 12.9081 25.5128Z" fill="#E52D2B"/>
</svg>
