<svg width="24" height="24" viewBox="0 0 24 24" fill="none" xmlns="http://www.w3.org/2000/svg">
<path d="M0.566624 8.34794C0.199031 9.49957 -4.68666e-05 10.7264 8.27599e-09 12C-4.68666e-05 13.2736 0.199078 14.5005 0.566671 15.6522L12 16.174L23.4333 15.6523C23.8008 14.5006 24 13.2736 24 12.0001C24 10.7265 23.8009 9.49957 23.4333 8.34789L12 7.82617L0.566624 8.34794Z" fill="#F0F0F0"/>
<path d="M23.4332 8.34789L11.9999 7.82617L0.566499 8.34789C0.457562 8.68933 0.363765 9.03747 0.285156 9.39138H23.7144C23.6358 9.03743 23.5421 8.68924 23.4332 8.34789Z" fill="#D80027"/>
<path d="M0.285156 14.6089C0.363672 14.9628 0.457468 15.3109 0.566406 15.6523L0.567531 15.6524L11.9997 16.1741L23.433 15.6524C23.5419 15.3109 23.6357 14.9628 23.7143 14.6089H0.285156Z" fill="#D80027"/>
<path d="M12.0002 24.0002C17.354 24.0002 21.8882 20.4938 23.4335 15.6523H0.566895C2.11213 20.4938 6.64643 24.0002 12.0002 24.0002Z" fill="#6DA544"/>
<path d="M11.9997 4.69974e-10C6.64594 4.68757e-05 2.11173 3.50645 0.566406 8.34786L23.433 8.34791C21.8878 3.5064 17.3536 -4.68747e-05 11.9997 4.69974e-10Z" fill="#338AF3"/>
<path d="M5.48376 4.95668C5.48376 3.83275 6.27365 2.89384 7.32847 2.6635C7.16638 2.62806 6.99814 2.60889 6.82536 2.60889C5.52871 2.60889 4.47754 3.66002 4.47754 4.95672C4.47754 6.25343 5.52862 7.30456 6.82536 7.30456C6.99814 7.30456 7.16633 7.28534 7.32847 7.24995C6.27369 7.01951 5.48376 6.0806 5.48376 4.95668Z" fill="#F0F0F0"/>
<path d="M8.71628 6.02393L8.87519 6.51307H9.3895L8.97344 6.81541L9.13234 7.30456L8.71628 7.00226L8.30012 7.30456L8.45908 6.81541L8.04297 6.51307H8.55728L8.71628 6.02393Z" fill="#F0F0F0"/>
<path d="M10.3578 6.02393L10.5167 6.51307H11.0311L10.6149 6.81541L10.7739 7.30456L10.3578 7.00226L9.94168 7.30456L10.1006 6.81541L9.68457 6.51307H10.1988L10.3578 6.02393Z" fill="#F0F0F0"/>
<path d="M11.9995 6.02393L12.1584 6.51307H12.6727L12.2566 6.81541L12.4155 7.30456L11.9995 7.00226L11.5833 7.30456L11.7423 6.81541L11.3262 6.51307H11.8405L11.9995 6.02393Z" fill="#F0F0F0"/>
<path d="M13.6411 6.02393L13.8 6.51307H14.3143L13.8982 6.81541L14.0572 7.30456L13.6411 7.00226L13.2249 7.30456L13.3839 6.81541L12.9678 6.51307H13.4821L13.6411 6.02393Z" fill="#F0F0F0"/>
<path d="M15.2826 6.02393L15.4415 6.51307H15.9559L15.5398 6.81541L15.6987 7.30456L15.2826 7.00226L14.8665 7.30456L15.0254 6.81541L14.6094 6.51307H15.1236L15.2826 6.02393Z" fill="#F0F0F0"/>
<path d="M10.3578 4.31641L10.5167 4.8055H11.0311L10.6149 5.10789L10.7739 5.59699L10.3578 5.29469L9.94168 5.59699L10.1006 5.10789L9.68457 4.8055H10.1988L10.3578 4.31641Z" fill="#F0F0F0"/>
<path d="M11.9995 4.31641L12.1584 4.8055H12.6727L12.2566 5.10789L12.4155 5.59699L11.9995 5.29469L11.5833 5.59699L11.7423 5.10789L11.3262 4.8055H11.8405L11.9995 4.31641Z" fill="#F0F0F0"/>
<path d="M13.6411 4.31641L13.8 4.8055H14.3143L13.8982 5.10789L14.0572 5.59699L13.6411 5.29469L13.2249 5.59699L13.3839 5.10789L12.9678 4.8055H13.4821L13.6411 4.31641Z" fill="#F0F0F0"/>
<path d="M15.2826 4.31641L15.4415 4.8055H15.9559L15.5398 5.10789L15.6987 5.59699L15.2826 5.29469L14.8665 5.59699L15.0254 5.10789L14.6094 4.8055H15.1236L15.2826 4.31641Z" fill="#F0F0F0"/>
<path d="M11.9995 2.60889L12.1584 3.09808H12.6727L12.2566 3.40037L12.4155 3.88956L11.9995 3.58727L11.5833 3.88956L11.7423 3.40037L11.3262 3.09808H11.8405L11.9995 2.60889Z" fill="#F0F0F0"/>
<path d="M13.6411 2.60889L13.8 3.09808H14.3143L13.8982 3.40037L14.0572 3.88956L13.6411 3.58727L13.2249 3.88956L13.3839 3.40037L12.9678 3.09808H13.4821L13.6411 2.60889Z" fill="#F0F0F0"/>
<path d="M15.2826 2.60889L15.4415 3.09808H15.9559L15.5398 3.40037L15.6987 3.88956L15.2826 3.58727L14.8665 3.88956L15.0254 3.40037L14.6094 3.09808H15.1236L15.2826 2.60889Z" fill="#F0F0F0"/>
</svg>
